<?xml version="1.0" standalone="no"?>
<!DOCTYPE svg PUBLIC "-//W3C//DTD SVG 20010904//EN"
 "http://www.w3.org/TR/2001/REC-SVG-20010904/DTD/svg10.dtd">
<svg version="1.0" xmlns="http://www.w3.org/2000/svg"
 width="300.000000pt" height="289.000000pt" viewBox="0 0 300.000000 289.000000"
 preserveAspectRatio="xMidYMid meet">
<metadata>
Created by potrace 1.10, written by Peter Selinger 2001-2011
</metadata>
<g transform="translate(0.000000,289.000000) scale(0.100000,-0.100000)"
fill="#d41c1c" stroke="none">
<path d="M1395 2851 c-11 -5 -29 -18 -39 -30 -11 -11 -25 -21 -33 -21 -7 0
-13 -4 -13 -10 0 -5 -13 -10 -29 -10 -16 0 -34 -7 -41 -15 -7 -8 -22 -15 -33
-15 -24 0 -118 -26 -165 -46 -18 -8 -39 -14 -48 -14 -23 0 -183 -78 -257 -127
-38 -24 -94 -65 -126 -91 -66 -55 -231 -236 -249 -272 -6 -14 -28 -52 -47 -85
-39 -65 -54 -96 -80 -165 -10 -25 -21 -54 -26 -65 -23 -56 -42 -153 -55 -275
-13 -120 -13 -151 1 -280 10 -93 25 -170 41 -214 13 -38 24 -75 24 -82 0 -20
62 -114 71 -108 16 9 9 90 -12 150 -50 145 -69 444 -38 599 20 96 42 180 57
215 21 51 54 123 64 140 4 8 15 29 23 46 8 18 25 45 38 60 13 16 30 40 37 53
7 13 26 39 44 58 65 73 135 143 142 143 4 0 25 16 48 35 22 19 48 41 57 49 64
54 247 137 374 170 102 27 105 27 99 11 -4 -8 -11 -15 -16 -15 -10 0 -61 -20
-108 -43 -61 -30 -11 -104 64 -94 l38 5 -6 -51 c-7 -48 -26 -76 -53 -77 -20 0
-106 -49 -128 -72 -11 -12 -32 -40 -47 -62 -15 -22 -44 -50 -65 -61 -20 -12
-38 -26 -41 -33 -6 -20 59 -39 123 -34 l61 4 -1 -28 c0 -31 15 -36 65 -19 l24
8 -27 -36 c-31 -40 -23 -52 26 -42 47 10 177 77 177 92 0 7 6 13 14 13 23 0
32 -101 13 -131 -9 -13 -21 -55 -27 -92 -11 -61 -15 -69 -44 -83 -17 -9 -40
-27 -51 -40 -19 -23 -22 -24 -76 -11 -77 19 -198 21 -250 6 -24 -8 -62 -32
-88 -57 -38 -35 -50 -42 -71 -36 -14 3 -59 8 -100 11 -76 4 -82 3 -155 -42
-42 -25 -118 -119 -128 -158 -5 -18 -14 -38 -20 -46 -12 -14 -15 -179 -7 -471
3 -130 1 -151 -18 -205 -26 -70 -25 -65 -8 -65 15 0 127 107 152 146 21 32 34
31 34 -3 0 -16 4 -34 9 -42 13 -21 33 -2 73 68 49 84 59 116 74 241 21 166 28
203 40 207 6 2 16 -7 22 -19 11 -22 25 -44 47 -77 6 -8 28 -33 51 -55 22 -23
44 -53 48 -68 8 -33 -12 -85 -52 -136 -40 -51 -62 -96 -62 -127 0 -28 24 -80
109 -234 28 -52 51 -96 51 -98 0 -3 6 -10 13 -17 16 -16 42 -94 35 -102 -3 -3
-21 2 -39 10 -35 16 -42 20 -116 69 -23 15 -44 27 -46 27 -8 0 -78 61 -146
128 -35 34 -66 62 -69 62 -2 0 -23 21 -47 48 -40 43 -45 46 -60 31 -16 -15
-15 -20 8 -65 33 -64 195 -222 286 -279 9 -5 29 -19 45 -29 16 -11 52 -30 80
-44 28 -13 69 -33 91 -44 45 -23 121 -47 245 -78 77 -20 106 -21 300 -18 184
3 219 6 241 21 25 17 26 16 57 -14 18 -18 35 -43 38 -58 9 -40 26 -72 47 -82
10 -6 52 -11 94 -12 92 -2 104 8 83 72 -9 27 -36 62 -82 107 -37 36 -68 71
-68 77 0 7 5 4 11 -5 5 -10 17 -18 25 -18 33 0 157 62 248 123 l60 40 46 -50
c29 -32 55 -73 69 -112 16 -45 27 -61 41 -61 31 0 50 -28 50 -75 0 -42 2 -45
38 -55 20 -6 69 -10 107 -8 65 3 70 5 73 27 2 13 1 38 -2 56 -8 40 -63 125
-82 125 -8 0 -14 7 -14 15 0 8 -4 15 -8 15 -11 0 -142 131 -142 142 0 4 24 8
53 8 75 0 84 8 67 62 -8 24 -22 62 -31 85 -10 22 -21 63 -25 90 -6 44 -6 47
10 34 15 -13 20 -10 46 20 16 19 29 39 30 46 0 6 4 13 9 15 9 3 85 158 94 193
3 11 15 46 26 78 24 64 61 284 61 361 0 42 2 47 18 40 9 -4 36 -9 60 -12 39
-4 46 -1 83 37 39 39 41 44 36 87 -2 24 -12 53 -20 62 -8 9 -25 71 -37 137
-12 66 -26 127 -31 137 -5 9 -9 43 -9 75 0 34 -8 74 -19 98 -10 22 -21 58 -25
80 -14 79 -28 105 -56 105 -14 0 -32 -9 -40 -20 -21 -29 -34 -25 -65 23 -39
58 -114 129 -134 125 -14 -3 -16 -17 -13 -101 l4 -97 -24 9 c-13 5 -22 15 -20
25 4 23 -25 63 -98 132 -176 168 -366 273 -618 340 -10 3 -12 13 -7 33 9 41
-9 71 -44 71 -15 0 -54 -14 -86 -32 l-59 -31 -31 36 c-34 39 -75 53 -110 38z
m62 -57 c7 -18 -3 -29 -34 -39 -20 -5 -23 -3 -23 18 0 35 45 52 57 21z m-82
-15 c-8 -24 -41 -60 -48 -53 -3 3 -8 1 -12 -5 -3 -6 2 -11 12 -11 13 -1 11 -5
-9 -16 -30 -16 -38 -44 -13 -44 8 0 15 -4 15 -10 0 -5 -5 -10 -11 -10 -5 0 -8
-4 -5 -8 3 -5 -8 -16 -25 -26 -16 -9 -29 -12 -29 -7 0 6 8 11 18 11 14 0 15 2
2 10 -12 7 -12 12 0 35 10 19 11 28 3 33 -7 4 -11 22 -11 40 1 29 4 33 39 38
21 4 46 15 55 25 22 25 27 24 19 -2z m249 0 c-10 -11 -40 -36 -65 -55 -38 -27
-51 -32 -70 -25 l-24 8 23 7 c13 4 22 15 22 27 0 10 3 18 8 17 19 -5 91 13
102 27 7 8 15 15 18 15 3 0 -3 -9 -14 -21z m83 4 c-4 -3 -7 0 -7 7 0 7 3 10 7
7 3 -4 3 -10 0 -14z m-27 0 c0 -25 -68 -79 -151 -121 -98 -50 -186 -78 -144
-47 10 8 55 30 99 48 54 21 96 47 130 79 50 46 66 56 66 41z m-210 -47 c0 -10
-99 -66 -115 -66 -25 0 -11 12 49 44 46 25 66 31 66 22z m-273 -42 c-3 -3 -20
-4 -39 -2 l-33 4 35 10 c31 9 52 2 37 -12z m-77 -9 c0 -8 -8 -15 -19 -15 -10
0 -35 -7 -56 -16 -20 -8 -39 -13 -41 -11 -7 7 62 37 85 37 12 0 21 5 21 10 0
6 2 10 5 10 3 0 5 -7 5 -15z m727 -16 c24 -12 42 -23 40 -26 -6 -5 -149 37
-161 48 -18 16 78 -1 121 -22z m-402 2 c-3 -6 -10 -9 -15 -6 -5 3 -12 -1 -17
-8 -8 -13 -63 -33 -63 -22 0 6 94 54 99 50 1 -2 0 -9 -4 -14z m239 0 c3 -4 27
-14 53 -21 57 -15 146 -46 188 -65 17 -7 41 -19 55 -25 14 -6 43 -22 65 -35
22 -14 47 -28 55 -32 8 -3 17 -10 20 -13 3 -4 12 -11 21 -16 36 -20 229 -194
229 -206 0 -2 -20 -4 -45 -5 -24 -1 -77 -9 -118 -17 -111 -23 -120 -29 -95
-54 16 -16 8 -22 -43 -33 -60 -14 -109 -39 -109 -56 0 -8 14 -20 31 -27 37
-16 27 -26 -40 -41 -37 -8 -54 -22 -67 -53 -1 -2 -223 107 -233 115 -3 2 6 24
18 49 17 33 22 56 18 85 -6 43 -28 66 -127 130 -48 31 -80 63 -80 81 0 2 22 3
50 4 27 0 52 3 55 5 2 3 5 47 6 98 2 90 3 93 33 116 32 26 51 31 60 16z m-700
-30 c3 -5 -3 -11 -14 -14 -22 -6 -37 8 -18 16 20 8 26 8 32 -2z m957 -11 c10
0 19 -5 19 -11 0 -6 -7 -8 -16 -5 -9 3 -20 6 -25 6 -5 0 -9 8 -8 18 0 10 3 12
6 5 2 -7 13 -13 24 -13z m-386 0 c3 -6 -4 -10 -17 -10 -18 0 -20 2 -8 10 19
12 18 12 25 0z m-640 -20 c3 -5 -1 -10 -10 -10 -9 0 -13 5 -10 10 3 6 8 10 10
10 2 0 7 -4 10 -10z m535 -10 c0 -5 -8 -10 -17 -10 -15 0 -16 2 -3 10 19 12
20 12 20 0z m560 6 c0 -3 -4 -8 -10 -11 -5 -3 -10 -1 -10 4 0 6 5 11 10 11 6
0 10 -2 10 -4z m-1143 -23 c-4 -3 -7 0 -7 7 0 7 3 10 7 7 3 -4 3 -10 0 -14z
m693 -43 c0 -44 -7 -53 -31 -39 -22 11 -26 68 -7 87 19 19 38 -5 38 -48z
m-713 33 c-4 -3 -7 0 -7 7 0 7 3 10 7 7 3 -4 3 -10 0 -14z m388 -11 c-8 -8
-25 10 -19 20 4 6 9 5 15 -3 4 -7 6 -15 4 -17z m255 8 c0 -11 -4 -20 -10 -20
-5 0 -10 5 -10 11 0 5 -4 7 -10 4 -5 -3 -10 -15 -10 -26 0 -12 -5 -19 -12 -16
-7 2 -13 14 -13 27 0 17 7 26 25 31 39 11 40 10 40 -11z m599 -17 c2 -2 0 -3
-6 -3 -6 0 -21 9 -34 21 l-24 20 30 -17 c17 -10 32 -19 34 -21z m-722 20 c-4
-3 -10 -3 -14 0 -3 4 0 7 7 7 7 0 10 -3 7 -7z m-560 -20 c-4 -3 -10 -3 -14 0
-3 4 0 7 7 7 7 0 10 -3 7 -7z m533 3 c0 -2 -7 -6 -15 -10 -8 -3 -15 -1 -15 4
0 6 7 10 15 10 8 0 15 -2 15 -4z m23 -73 c-17 -66 -54 -144 -60 -126 -3 7 -20
-4 -42 -27 -40 -42 -81 -58 -44 -17 23 25 113 179 113 193 0 14 22 34 36 34 9
0 8 -14 -3 -57z m-66 10 c-4 -3 -10 -3 -14 0 -3 4 0 7 7 7 7 0 10 -3 7 -7z
m161 -166 c6 -7 38 -30 72 -52 33 -22 63 -49 66 -60 6 -23 -7 -59 -31 -90 -15
-19 -15 -19 -35 0 -10 11 -28 43 -38 70 -23 58 -46 66 -50 16 -7 -74 40 -144
125 -183 34 -17 63 -34 63 -38 0 -16 -18 -20 -42 -11 -13 5 -40 12 -60 16 -21
3 -44 12 -52 20 -17 18 -76 200 -76 236 0 29 27 89 40 89 4 0 12 -6 18 -13z
m1059 -175 c23 -13 41 -68 27 -82 -5 -4 -54 -10 -109 -12 -112 -4 -134 -14
-231 -102 -34 -30 -61 -46 -78 -46 -38 0 -32 11 22 43 81 47 157 106 167 129
12 30 24 38 58 38 31 0 37 19 7 27 -11 3 -20 9 -20 13 0 20 116 14 157 -8z
m238 -56 c17 -12 16 -48 -2 -45 -23 4 -53 -3 -65 -14 -32 -31 -71 -56 -79 -51
-16 10 -9 44 16 84 23 37 29 40 68 40 24 0 52 -6 62 -14z m-242 -122 c11 -11
-20 -56 -85 -127 l-63 -68 -65 24 c-80 30 -95 50 -60 77 76 59 248 118 273 94z
m255 -17 c22 -23 47 -106 64 -212 5 -33 18 -77 29 -97 20 -39 25 -78 10 -78
-5 0 -17 -8 -26 -17 -16 -16 -20 -14 -59 28 -50 52 -101 173 -92 216 4 18 -1
42 -13 67 -19 37 -19 41 -4 67 14 23 44 46 64 48 3 1 15 -9 27 -22z m-954 -32
c53 -25 96 -49 96 -54 0 -5 -9 -13 -21 -16 -15 -5 -34 2 -64 24 -24 17 -49 31
-55 31 -18 0 -80 40 -80 51 0 17 27 9 124 -36z m-330 0 c29 -5 36 -9 25 -16
-19 -12 -126 -11 -134 1 -11 19 6 31 38 26 18 -3 50 -8 71 -11z m29 -92 c4 -3
19 -29 33 -59 13 -30 29 -54 34 -54 6 0 10 -7 10 -15 0 -8 10 -20 23 -26 12
-6 29 -18 37 -25 8 -7 40 -34 70 -60 64 -54 81 -86 158 -294 9 -25 29 -66 45
-91 30 -51 28 -76 -9 -85 -33 -9 -54 12 -54 53 0 23 -18 65 -56 131 -94 161
-121 196 -212 268 -122 96 -158 131 -176 169 -22 45 -21 92 2 98 18 6 81 -1
95 -10z m1067 -59 c0 -11 -11 -14 -47 -12 -56 4 -64 19 -26 54 l28 26 22 -27
c13 -14 23 -33 23 -41z m-321 -7 c95 -40 104 -47 95 -71 -9 -23 -38 -16 -129
30 -73 38 -105 61 -105 77 0 14 47 2 139 -36z m-425 -13 c3 -9 6 -47 6 -85 0
-71 -13 -90 -30 -43 -11 29 -13 127 -3 137 11 11 20 8 27 -9z m-523 -58 c10
-13 58 -43 106 -66 86 -42 100 -64 26 -39 -77 24 -154 69 -163 95 -13 32 -12
34 1 34 6 0 20 -11 30 -24z m773 16 c8 -13 152 -82 170 -82 21 0 32 -28 17
-43 -6 -6 -11 -21 -11 -32 0 -12 -20 -42 -45 -68 -42 -44 -48 -47 -95 -47 -37
0 -50 -4 -50 -14 0 -22 49 -56 79 -56 15 0 32 -5 38 -11 21 -21 -8 -154 -32
-146 -5 2 -12 19 -16 38 -11 68 -63 128 -112 129 -39 0 -43 -22 -12 -69 17
-24 25 -49 22 -61 -3 -11 -1 -35 3 -55 10 -43 -4 -56 -19 -17 -5 15 -17 38
-25 52 -20 33 -64 133 -82 183 -17 47 -19 186 -3 221 6 13 29 32 50 42 22 9
44 23 50 31 12 14 65 18 73 5z m457 -22 c57 0 69 -3 69 -16 0 -15 -11 -16 -86
-11 -47 2 -88 7 -91 10 -10 10 9 28 24 23 8 -3 46 -6 84 -6z m-1472 -16 l39
-15 5 -87 c8 -117 23 -191 43 -213 15 -17 33 -19 140 -19 l122 0 12 -35 c11
-33 14 -35 55 -35 l43 0 4 -92 c3 -51 3 -96 -1 -99 -3 -3 -24 -4 -46 -2 -34 4
-44 10 -62 41 -11 21 -23 51 -27 67 -4 17 -18 44 -31 60 -21 25 -26 28 -35 15
-6 -8 -9 -34 -6 -57 3 -24 3 -43 -1 -43 -10 0 -105 81 -133 114 -39 47 -74 98
-93 139 -9 21 -24 40 -32 43 -21 8 -49 -16 -35 -30 5 -5 10 -16 10 -24 0 -37
55 -127 118 -192 95 -98 120 -151 127 -265 l5 -90 -16 50 c-9 28 -27 73 -40
102 -13 28 -24 59 -24 67 0 13 -40 50 -46 43 -2 -1 2 -22 7 -46 11 -50 6 -60
-18 -39 -21 17 -100 58 -113 58 -5 0 -29 14 -53 30 -25 17 -49 30 -53 30 -11
0 -98 90 -107 110 -4 8 -11 22 -16 30 -30 50 -36 80 -36 166 0 87 2 94 31 136
36 50 88 79 159 89 28 3 53 7 57 8 4 0 25 -6 47 -15z m141 -61 c0 -16 6 -50
13 -78 15 -58 33 -70 127 -87 57 -11 80 -27 43 -29 -67 -4 -170 4 -181 15 -13
13 -35 182 -26 198 11 17 24 7 24 -19z m137 -33 c5 0 18 -9 28 -20 11 -12 13
-20 6 -20 -22 0 -70 30 -81 49 -16 32 -12 36 13 13 13 -12 28 -22 34 -22z
m-684 15 c-2 -5 -20 -10 -40 -10 -21 -1 -47 -4 -58 -7 -55 -17 -65 -19 -65
-10 0 17 74 41 120 39 25 -1 44 -6 43 -12z m2022 -6 c4 -6 0 -16 -8 -22 -11
-9 -16 -45 -21 -147 -4 -74 -11 -151 -16 -170 -27 -109 -53 -196 -61 -204 -5
-6 -9 -15 -9 -22 0 -15 -24 -65 -60 -129 -16 -27 -35 -62 -42 -77 -12 -27 -28
-38 -28 -19 0 6 -39 43 -86 83 -113 96 -174 153 -174 165 0 6 13 28 30 49 16
22 33 44 37 49 17 22 42 81 46 109 3 16 0 61 -5 101 l-10 73 46 79 46 78 143
5 c78 3 147 7 154 8 6 1 15 -3 18 -9z m-2130 -91 c-26 -23 -57 -57 -69 -77
-32 -51 -50 -163 -42 -254 7 -84 -2 -237 -15 -237 -5 0 -9 28 -10 63 l-1 62
-10 -45 c-5 -25 -15 -51 -22 -58 -10 -11 -14 18 -19 150 -3 90 -3 181 2 203
18 90 76 161 176 214 60 32 63 26 10 -21z m985 -69 c0 -16 -4 -29 -10 -29 -5
0 -10 16 -10 36 0 21 4 33 10 29 6 -3 10 -19 10 -36z m-967 -274 c-6 -18 -8
-17 -19 10 -17 39 -18 167 -1 184 10 10 13 -6 19 -81 4 -51 4 -102 1 -113z
m1079 59 c9 -73 9 -144 -1 -144 -5 0 -13 6 -19 13 -13 15 -27 150 -18 172 11
30 31 9 38 -41z m108 -9 c0 -7 13 -41 30 -76 35 -75 28 -96 -15 -46 -34 39
-72 148 -59 169 8 13 44 -25 44 -47z m230 -129 c6 -8 28 -16 48 -18 76 -6 25
-65 -59 -67 -31 -1 -63 54 -47 82 11 21 41 22 58 3z m-592 -70 c49 -25 179
-53 342 -73 38 -4 53 -14 95 -57 28 -28 66 -62 86 -74 20 -12 48 -37 62 -55
13 -17 39 -45 56 -62 17 -16 31 -34 31 -38 0 -5 22 -34 49 -65 46 -53 78 -114
52 -98 -10 6 -47 -13 -129 -66 -42 -27 -105 -58 -118 -58 -6 0 -17 -7 -24 -15
-10 -13 -20 -8 -65 30 -29 25 -55 45 -59 45 -6 0 -99 76 -144 118 -7 6 -23 17
-35 24 -21 11 -50 35 -104 86 -13 12 -27 22 -30 22 -3 0 -30 25 -60 55 l-53
55 0 120 c0 77 4 120 10 120 6 0 23 -6 38 -14z m-417 -54 c-27 -38 -50 -57
-59 -47 -6 6 63 75 75 75 3 0 -5 -13 -16 -28z m146 -64 c28 -40 48 -93 73
-194 10 -40 26 -57 85 -89 11 -5 53 -33 93 -60 40 -28 83 -55 94 -62 11 -6 23
-15 27 -20 8 -11 139 -106 168 -121 26 -14 53 -40 53 -52 0 -11 -76 -19 -245
-26 -110 -4 -161 -1 -239 13 l-98 18 -71 135 c-125 240 -150 294 -151 329 -1
31 5 38 49 69 28 19 61 49 75 68 14 18 32 34 41 34 8 0 29 -19 46 -42z m974
-15 c5 -15 9 -37 7 -50 -3 -23 -5 -23 -46 16 -43 41 -43 41 -20 50 37 15 48
13 59 -16z m176 -89 c44 -30 50 -43 59 -129 7 -65 -5 -103 -28 -89 -12 8 -108
203 -108 219 0 7 -7 18 -15 25 -8 7 -12 16 -9 21 6 10 43 -8 101 -47z m193
-245 c0 -16 -5 -29 -10 -29 -15 0 -34 46 -26 65 10 26 36 -1 36 -36z m-1407
-186 c11 -21 16 -63 7 -63 -8 0 -40 50 -40 65 0 8 28 6 33 -2z m1523 -168 c14
-35 12 -55 -7 -55 -9 0 -18 18 -33 68 -12 38 23 27 40 -13z m-622 -37 c17 -24
22 -68 7 -68 -10 0 -51 65 -51 81 0 17 29 9 44 -13z"/>
<path d="M1535 2730 c-3 -5 -1 -10 4 -10 6 0 11 5 11 10 0 6 -2 10 -4 10 -3 0
-8 -4 -11 -10z"/>
<path d="M1431 2544 c0 -11 3 -14 6 -6 3 7 2 16 -1 19 -3 4 -6 -2 -5 -13z"/>
</g>
</svg>
