<?xml version="1.0" standalone="no"?>
<!DOCTYPE svg PUBLIC "-//W3C//DTD SVG 20010904//EN"
 "http://www.w3.org/TR/2001/REC-SVG-20010904/DTD/svg10.dtd">
<svg version="1.0" xmlns="http://www.w3.org/2000/svg"
 width="501.000000pt" height="483.000000pt" viewBox="0 0 501.000000 483.000000"
 preserveAspectRatio="xMidYMid meet">
<metadata>
Created by potrace 1.10, written by Peter Selinger 2001-2011
</metadata>
<g transform="translate(0.000000,483.000000) scale(0.100000,-0.100000)"
fill="#d41c1c" stroke="none">
<path d="M2091 4772 c-17 -9 -43 -29 -59 -43 -15 -14 -30 -26 -33 -25 -4 1
-15 -6 -25 -15 -11 -9 -37 -19 -58 -22 -23 -4 -51 -18 -67 -33 -23 -22 -34
-26 -63 -21 -21 3 -36 2 -36 -4 0 -6 -4 -8 -9 -5 -13 8 -202 -53 -219 -71 -8
-8 -24 -12 -35 -9 -20 5 -274 -106 -292 -128 -5 -7 -41 -30 -80 -50 -68 -37
-124 -79 -189 -138 -17 -16 -50 -43 -74 -60 -23 -17 -42 -34 -42 -38 0 -4 -35
-43 -77 -86 -106 -109 -173 -188 -173 -206 0 -8 -8 -23 -17 -34 -10 -11 -29
-42 -43 -69 -14 -28 -31 -54 -37 -58 -7 -4 -13 -12 -13 -18 0 -5 -12 -28 -26
-50 -14 -23 -27 -50 -29 -60 -2 -10 -19 -54 -38 -96 -19 -43 -39 -94 -45 -113
-6 -19 -20 -66 -31 -105 -12 -38 -21 -80 -21 -93 0 -13 -4 -31 -9 -40 -21 -39
-48 -462 -31 -462 4 0 4 -15 2 -32 -8 -80 29 -306 72 -431 14 -42 26 -86 26
-96 0 -17 45 -111 59 -121 3 -3 13 -18 21 -35 9 -16 22 -30 30 -30 22 0 19
156 -4 215 -10 25 -18 53 -19 62 -1 10 -4 18 -7 18 -3 0 -7 8 -8 18 -1 9 -6
55 -11 102 -5 47 -14 99 -19 115 -19 53 -35 274 -28 379 7 101 38 290 58 356
6 19 12 41 13 50 3 30 25 96 61 180 20 47 44 106 54 131 9 26 27 56 39 68 11
11 22 27 22 34 3 28 5 33 16 47 29 35 60 78 87 120 16 25 40 56 53 69 12 13
23 29 23 36 0 7 9 15 21 18 11 3 23 15 26 26 3 12 12 21 19 21 8 0 14 4 14 9
0 14 122 131 136 131 7 0 18 8 23 18 5 9 28 31 51 47 23 17 59 44 81 62 22 17
64 43 94 57 29 14 57 31 60 36 6 9 50 31 170 85 69 32 108 45 116 39 5 -3 9 0
9 6 0 6 5 8 10 5 6 -4 16 -2 23 3 7 5 56 19 110 32 53 12 97 26 97 31 0 5 7 9
15 9 12 0 13 -4 3 -25 -11 -24 -96 -65 -134 -65 -8 0 -32 -11 -54 -25 -31 -20
-40 -32 -40 -53 0 -43 42 -97 68 -87 6 2 12 1 12 -3 0 -4 18 -7 40 -7 22 0 40
3 40 8 0 10 28 9 35 -2 3 -5 -2 -43 -11 -83 -14 -63 -20 -76 -46 -91 -16 -9
-38 -17 -49 -17 -17 0 -54 -18 -117 -57 -38 -24 -122 -113 -122 -129 0 -23
-84 -101 -116 -108 -37 -8 -60 -41 -43 -62 6 -8 17 -14 23 -14 6 0 23 -6 37
-14 26 -13 154 -14 167 -2 3 3 14 6 25 6 14 0 17 -4 12 -17 -5 -10 -8 -29 -9
-43 -1 -21 4 -25 30 -28 18 -2 48 4 68 12 20 8 36 12 36 7 0 -20 -27 -62 -48
-72 -75 -41 66 -46 151 -5 31 14 61 26 67 26 7 0 25 11 42 25 16 14 36 25 44
25 8 0 14 9 14 20 0 14 7 20 24 20 20 0 24 -6 31 -52 12 -80 8 -115 -14 -144
-11 -14 -17 -32 -14 -40 3 -8 0 -14 -7 -14 -6 0 -8 -5 -5 -10 4 -6 2 -16 -3
-23 -6 -7 -13 -42 -17 -79 l-7 -66 -48 -20 c-34 -14 -57 -33 -76 -61 -19 -29
-32 -40 -44 -36 -59 19 -169 37 -258 42 -89 5 -114 2 -183 -17 -71 -20 -88
-30 -135 -76 -75 -74 -87 -80 -132 -57 -28 14 -60 18 -137 18 -109 0 -151 -13
-212 -66 -20 -17 -39 -26 -49 -22 -12 4 -15 1 -12 -13 2 -13 -9 -28 -35 -47
-21 -15 -42 -39 -47 -52 -5 -14 -14 -25 -20 -25 -5 0 -10 -6 -10 -14 0 -8 -7
-16 -15 -20 -8 -3 -15 -16 -15 -30 0 -29 -17 -78 -30 -86 -14 -8 -25 -138 -25
-275 1 -146 8 -295 15 -295 3 0 5 -79 5 -175 0 -96 -2 -175 -5 -175 -3 0 -6
-14 -7 -31 -1 -18 -11 -49 -22 -70 -24 -46 -30 -90 -14 -96 7 -2 32 14 56 36
24 22 47 38 50 35 3 -3 11 5 18 17 7 13 35 47 63 75 28 29 51 58 51 64 0 7 10
19 22 27 23 15 23 15 23 -28 0 -94 19 -110 68 -58 28 30 131 220 135 249 2 8
7 22 12 30 10 15 34 238 35 325 1 44 28 146 43 161 3 3 17 -13 31 -35 15 -23
30 -41 35 -41 5 0 13 -12 19 -27 13 -36 92 -143 106 -143 22 0 63 -56 69 -93
9 -56 -53 -178 -128 -254 -37 -36 -63 -156 -41 -191 4 -7 4 -12 0 -12 -3 0 -1
-6 5 -14 6 -7 22 -33 34 -57 59 -113 100 -185 112 -199 7 -8 17 -28 21 -44 4
-16 18 -45 31 -64 12 -19 23 -39 23 -45 0 -5 12 -20 26 -33 14 -13 22 -29 19
-34 -4 -6 3 -25 14 -44 12 -18 21 -43 21 -56 0 -19 -4 -21 -22 -15 -13 3 -34
8 -48 10 -14 2 -34 15 -45 28 -11 14 -31 28 -45 32 -24 8 -149 87 -181 115 -9
8 -36 31 -58 50 -23 19 -83 74 -133 123 -50 48 -96 87 -104 87 -7 0 -15 8 -19
18 -9 26 -91 112 -108 112 -7 0 -22 -9 -33 -21 -18 -20 -18 -22 16 -87 19 -37
55 -87 80 -112 25 -25 53 -56 63 -70 9 -13 17 -21 17 -18 0 4 27 -20 60 -52
34 -33 70 -64 80 -70 11 -6 20 -17 20 -25 0 -7 10 -17 23 -20 12 -4 33 -17 47
-30 14 -12 45 -32 70 -44 24 -13 57 -34 73 -47 16 -13 39 -27 53 -30 13 -3 24
-10 24 -15 0 -5 9 -9 19 -9 11 0 22 -4 26 -9 3 -5 22 -15 43 -22 20 -6 44 -17
52 -24 8 -7 40 -21 70 -30 30 -10 64 -22 75 -27 23 -10 142 -45 199 -59 119
-29 297 -42 506 -35 259 8 315 14 339 37 25 24 34 24 56 -1 10 -11 24 -20 31
-20 12 0 38 -35 39 -52 0 -3 3 -10 8 -14 4 -4 7 -22 7 -39 0 -23 11 -45 35
-73 32 -36 43 -41 103 -51 158 -24 171 -24 192 1 13 15 19 36 17 60 -1 21 -4
38 -7 38 -3 0 -6 9 -7 20 -2 23 -134 173 -188 215 -25 19 -35 34 -34 53 l0 27
12 -25 c6 -14 16 -29 22 -33 17 -13 98 3 112 23 7 9 28 20 47 23 31 5 79 32
241 136 22 14 48 34 57 46 18 20 18 19 70 -35 64 -67 96 -112 104 -148 4 -15
20 -53 35 -84 27 -54 48 -70 92 -73 17 0 27 -33 27 -87 0 -45 5 -63 21 -79 11
-11 27 -18 35 -15 8 3 14 2 14 -2 0 -4 57 -7 127 -7 l128 1 3 58 c3 60 -21
156 -39 156 -6 0 -8 4 -5 8 7 11 -70 92 -88 92 -9 0 -12 7 -9 20 4 13 0 20 -9
20 -16 0 -47 27 -86 74 -12 15 -27 24 -32 21 -6 -3 -14 4 -19 17 -5 13 -27 41
-50 63 -22 22 -41 44 -41 48 0 5 33 6 74 3 119 -11 145 12 112 101 -7 21 -21
63 -31 93 -10 30 -24 65 -32 78 -7 12 -11 26 -8 31 2 5 -1 26 -8 47 -8 22 -11
50 -8 63 l6 24 12 -26 c9 -19 17 -24 33 -20 12 3 24 13 28 22 3 9 17 32 31 51
45 61 111 182 126 230 4 14 16 37 26 52 11 14 19 34 19 45 0 10 7 32 16 48 50
94 114 406 119 579 2 65 7 122 13 128 6 6 23 1 46 -13 67 -40 167 -3 224 83
22 34 24 45 18 100 -4 43 -13 69 -28 85 -20 21 -33 69 -59 218 -5 33 -14 76
-19 95 -5 19 -12 49 -15 67 -3 18 -10 44 -15 58 -6 15 -10 57 -10 94 0 66 -13
114 -46 174 -9 16 -18 59 -21 95 -3 43 -13 81 -28 107 -19 35 -26 40 -54 37
-20 -1 -43 -14 -63 -34 -32 -33 -50 -32 -72 7 -6 10 -19 27 -28 37 -10 10 -18
22 -18 28 0 5 -33 43 -74 85 -112 115 -139 102 -130 -61 3 -54 10 -106 14
-114 5 -9 4 -23 -1 -32 -7 -13 -15 -15 -41 -7 -38 11 -60 29 -35 29 21 0 23
37 3 59 -7 9 -50 55 -96 102 -45 47 -85 89 -88 95 -13 17 -110 94 -120 94 -5
0 -17 9 -28 21 -24 27 -162 119 -178 119 -7 0 -23 11 -36 25 -13 14 -27 25
-32 25 -11 0 -121 51 -128 59 -7 8 -71 32 -95 36 -11 2 -20 4 -20 5 0 1 -7 3
-15 5 -8 2 -51 18 -95 34 -44 17 -97 34 -117 37 -41 7 -49 27 -26 63 14 23 -5
77 -34 92 -28 15 -97 1 -134 -27 -17 -13 -34 -20 -38 -17 -3 4 -6 1 -6 -6 0
-7 -4 -9 -10 -6 -5 3 -10 2 -10 -3 0 -6 -12 -13 -26 -16 -19 -5 -35 0 -60 19
-19 14 -34 32 -34 39 0 43 -95 67 -149 38z m105 -20 c5 -4 21 -25 34 -47 13
-22 29 -45 35 -51 20 -20 83 -6 150 35 93 57 155 54 155 -6 0 -57 -70 -142
-162 -196 l-38 -22 -1 -115 c-2 -165 -5 -174 -56 -178 -22 -2 -58 4 -78 12
-47 20 -45 21 -45 -9 0 -47 30 -99 78 -135 26 -19 49 -37 52 -40 3 -3 28 -20
57 -38 97 -58 133 -102 133 -160 0 -38 -43 -148 -64 -163 -13 -10 1 -38 21
-45 10 -4 90 -42 179 -85 150 -74 259 -110 284 -94 11 7 -12 35 -29 35 -12 0
-41 28 -41 41 0 5 10 9 23 9 36 1 230 55 234 66 2 5 -29 21 -69 34 -40 13 -77
27 -82 31 -19 16 140 69 278 94 44 7 39 17 -21 34 -61 17 -55 37 12 45 31 3
74 13 98 22 55 20 278 29 327 13 19 -7 52 -18 74 -26 21 -8 40 -12 42 -11 2 2
-3 35 -11 73 -16 75 -20 245 -7 245 22 0 231 -243 245 -284 2 -6 26 13 53 42
28 28 55 52 62 52 17 0 37 -54 51 -140 6 -41 24 -100 38 -130 21 -42 27 -72
29 -130 1 -42 13 -117 27 -170 14 -52 35 -153 47 -225 14 -86 28 -137 40 -150
45 -51 51 -97 19 -154 -23 -40 -79 -85 -122 -95 -44 -11 -148 43 -165 86 -32
81 -34 83 -87 81 -267 -10 -327 -10 -376 -1 -52 10 -58 9 -78 -11 -11 -11 -21
-27 -21 -35 0 -7 -7 -19 -15 -26 -8 -7 -15 -16 -15 -21 0 -5 -17 -35 -37 -66
-72 -111 -71 -110 -48 -200 24 -92 20 -184 -11 -246 -24 -46 -72 -113 -108
-149 -22 -23 -36 -56 -36 -87 0 -37 31 -71 178 -189 56 -46 102 -87 102 -92 0
-6 6 -10 14 -10 8 0 41 -30 74 -67 49 -55 58 -70 49 -84 -8 -12 -7 -28 1 -57
7 -22 12 -49 12 -61 0 -12 4 -29 9 -39 6 -9 22 -51 36 -92 14 -41 30 -83 36
-92 18 -35 11 -58 -18 -59 -16 -1 -37 -2 -48 -3 -11 -1 -34 2 -50 5 -17 3 -41
2 -52 -2 -16 -6 -21 -4 -18 4 3 7 -10 19 -28 28 -17 9 -32 21 -32 27 0 7 -4
11 -10 10 -5 -2 -9 -7 -7 -12 8 -25 142 -176 260 -295 73 -73 141 -145 150
-159 26 -39 42 -92 42 -139 l0 -41 -62 -7 c-71 -7 -192 7 -214 26 -9 7 -14 32
-15 68 -1 77 -8 91 -59 110 -41 15 -45 20 -69 87 -32 86 -47 110 -128 196 -34
37 -63 72 -63 78 0 5 -10 10 -22 11 -13 0 -18 3 -11 6 8 3 9 8 3 16 -34 42
-80 109 -80 116 0 5 -4 11 -9 13 -5 2 -32 32 -60 68 -87 111 -104 130 -188
216 -45 46 -88 84 -95 84 -7 0 -38 25 -68 55 -142 144 -130 135 -190 135 -57
0 -248 28 -360 53 -67 15 -214 70 -237 89 -9 8 -13 7 -13 -2 0 -10 -3 -10 -16
0 -12 11 -15 11 -12 -1 2 -8 7 -17 12 -20 4 -4 7 -68 7 -143 -1 -75 1 -164 5
-198 7 -57 10 -64 63 -116 59 -58 259 -227 326 -277 22 -16 58 -45 80 -65 87
-76 249 -200 262 -200 3 0 19 -13 34 -30 21 -21 29 -40 29 -66 0 -29 7 -42 36
-67 112 -98 169 -167 190 -230 16 -48 16 -51 -1 -63 -31 -23 -221 2 -255 34
-10 9 -24 39 -30 66 -15 70 -36 103 -79 130 -35 23 -68 76 -54 90 17 17 -13
59 -75 103 -37 26 -69 50 -72 53 -13 14 -151 110 -159 110 -4 0 -20 14 -34 30
-15 17 -32 30 -38 30 -5 0 -38 20 -72 45 -77 57 -289 195 -299 195 -14 0 -36
56 -49 120 -14 74 -53 187 -74 216 -72 95 -97 124 -109 124 -7 0 -39 -30 -72
-66 -32 -36 -94 -89 -136 -117 -72 -46 -78 -53 -78 -84 0 -41 28 -132 46 -154
8 -8 14 -19 14 -23 0 -8 167 -344 203 -406 14 -25 36 -68 50 -95 33 -65 52
-81 107 -90 25 -4 54 -9 65 -11 11 -3 72 -12 135 -20 121 -17 330 -14 455 6
137 23 140 23 154 7 33 -40 -31 -64 -211 -78 -135 -11 -408 -7 -488 7 -31 5
-281 69 -365 93 -48 13 -338 156 -370 183 -17 13 -43 30 -58 38 -60 30 -247
195 -347 306 -81 89 -128 184 -91 184 9 0 61 -55 96 -102 15 -21 31 -38 36
-38 5 0 44 -35 86 -78 43 -43 96 -92 118 -108 22 -16 54 -42 70 -57 17 -15 43
-35 59 -43 15 -9 50 -31 76 -50 26 -19 51 -34 54 -34 4 0 26 -13 49 -28 40
-26 101 -52 124 -52 26 0 37 74 15 104 -5 6 -15 27 -22 46 -7 19 -19 42 -26
50 -7 8 -31 51 -54 95 -23 44 -61 114 -83 155 -80 147 -116 225 -117 250 0 30
29 110 47 128 62 63 133 203 133 261 0 42 -4 49 -63 105 -56 54 -207 262 -207
285 0 5 -8 7 -19 4 -21 -5 -50 -83 -56 -153 -3 -25 -9 -103 -15 -175 -6 -71
-16 -146 -22 -165 -37 -122 -147 -328 -169 -315 -5 4 -9 23 -9 43 -1 20 -7 62
-14 92 -11 50 -14 53 -24 33 -7 -12 -12 -30 -12 -41 0 -10 -9 -27 -20 -37 -11
-10 -20 -23 -20 -30 0 -15 -174 -195 -189 -195 -13 0 -14 13 -2 26 5 5 19 43
31 84 28 92 29 248 6 475 -9 83 -16 187 -16 231 0 96 25 250 45 281 8 12 15
31 15 42 0 44 159 217 236 257 53 28 155 39 233 25 39 -7 73 -17 77 -22 15
-24 53 -5 122 61 40 39 81 70 90 70 10 0 22 4 28 10 34 34 280 26 435 -14 43
-11 52 -11 65 1 8 8 14 20 14 28 0 7 14 25 31 40 24 20 38 25 59 20 26 -6 28
-4 34 42 16 112 55 238 79 254 5 4 10 19 10 34 0 41 -37 225 -45 225 -4 0 -12
-10 -19 -22 -32 -65 -194 -164 -301 -185 l-33 -6 33 37 c32 36 82 110 82 121
0 11 -25 4 -44 -13 -22 -20 -142 -59 -152 -50 -3 3 18 37 45 75 28 38 51 73
51 77 0 9 -39 -12 -65 -34 -30 -26 -119 -43 -189 -37 -108 10 -122 25 -51 53
46 17 87 59 118 120 36 69 164 164 222 164 12 0 42 17 65 38 40 35 44 43 47
92 1 30 12 72 23 94 11 22 17 42 15 44 -2 3 -18 -1 -35 -8 -50 -21 -144 -18
-169 4 -12 11 -21 27 -21 37 0 17 48 59 68 59 9 0 67 23 132 52 14 7 29 12 35
12 16 1 18 35 5 99 -14 71 -6 85 56 93 51 8 95 28 120 55 43 49 117 74 150 51z
m-368 -192 c6 -16 7 -32 3 -35 -5 -2 -48 -14 -97 -25 -102 -23 -165 -43 -244
-75 -30 -13 -65 -26 -78 -30 -28 -8 -247 -130 -282 -157 -14 -11 -61 -47 -105
-79 -110 -83 -295 -263 -295 -288 0 -6 -6 -14 -13 -18 -20 -13 -116 -151 -155
-222 -20 -36 -44 -78 -54 -93 -11 -16 -17 -28 -14 -28 3 0 -5 -19 -18 -42 -41
-75 -120 -326 -137 -438 -5 -36 -15 -130 -21 -210 -9 -123 -9 -169 6 -300 20
-190 42 -333 55 -357 24 -48 52 -164 49 -208 l-3 -48 -15 29 c-8 16 -20 36
-28 46 -7 9 -20 41 -28 72 -8 30 -23 76 -34 101 -17 39 -28 87 -45 195 -1 8
-5 22 -8 30 -3 8 -11 85 -17 170 -16 218 -3 388 50 635 30 140 128 365 230
533 68 109 79 127 100 152 87 101 114 132 170 189 36 37 99 93 140 126 41 32
77 62 80 66 3 3 34 25 70 48 36 22 70 44 75 48 6 5 39 24 75 42 36 19 79 42
96 51 16 10 66 30 110 45 43 15 87 31 96 36 21 11 235 67 260 68 9 1 20 -11
26 -29z m907 -25 c123 -42 170 -61 268 -107 59 -28 107 -54 107 -58 0 -5 11
-11 24 -14 19 -5 134 -81 188 -125 7 -6 42 -34 77 -62 95 -77 246 -235 260
-272 2 -6 -13 -8 -41 -5 -38 4 -52 13 -94 59 -92 100 -224 212 -349 294 -33
22 -62 42 -65 45 -3 3 -21 13 -40 22 -19 9 -55 28 -80 42 -88 48 -250 109
-362 136 -45 11 -86 24 -91 29 -6 6 0 18 19 34 27 24 29 24 83 10 31 -8 74
-21 96 -28z m-211 -34 c12 -10 44 -24 71 -30 120 -30 135 -34 135 -41 0 -4 6
-7 13 -6 15 1 120 -34 127 -44 6 -7 65 -32 77 -32 13 0 81 -37 88 -48 3 -6 23
-18 43 -28 51 -25 82 -44 113 -67 15 -11 50 -36 78 -55 27 -19 50 -40 51 -47
0 -6 17 -20 38 -30 20 -10 36 -24 35 -31 -2 -6 1 -12 6 -12 9 0 161 -149 161
-157 0 -2 -9 -1 -20 2 -26 8 -198 -13 -225 -28 -18 -10 -70 -21 -145 -31 -14
-2 -26 -4 -28 -5 -2 0 6 -16 18 -35 24 -39 18 -47 -38 -52 -52 -4 -147 -43
-174 -71 -23 -24 -23 -25 -3 -39 11 -8 36 -19 57 -25 21 -5 38 -14 38 -19 0
-9 -39 -26 -53 -22 -14 4 -102 -20 -124 -34 -14 -9 -23 -24 -23 -39 0 -14 -5
-25 -10 -25 -16 0 -88 38 -95 50 -3 5 -17 10 -31 10 -13 0 -24 4 -24 8 0 4
-13 16 -30 25 -16 10 -30 16 -30 13 0 -3 -31 11 -70 30 -38 20 -70 39 -70 43
0 5 7 22 16 40 9 17 17 38 18 46 1 8 5 18 9 21 11 11 8 97 -3 130 -6 16 -31
45 -55 63 -24 19 -42 38 -39 42 5 9 -25 21 -37 13 -5 -3 -9 0 -9 6 0 6 -4 8
-10 5 -5 -3 -10 -2 -10 3 0 5 -21 24 -47 43 -68 48 -83 66 -83 95 0 23 2 25
15 14 10 -8 30 -11 58 -6 66 10 76 12 81 17 3 3 6 66 7 141 2 150 -4 136 73
196 35 27 35 27 60 3z m1497 -1621 c27 -15 25 -42 -3 -38 -23 3 -23 2 -29
-157 -8 -189 -26 -340 -45 -376 -7 -15 -10 -29 -7 -33 4 -3 1 -6 -6 -6 -8 0
-11 -8 -8 -20 7 -27 -13 -98 -57 -198 -19 -45 -36 -84 -36 -87 0 -3 0 -11 0
-19 0 -7 -16 -33 -34 -57 -19 -24 -38 -54 -41 -68 -3 -13 -19 -43 -35 -65 -15
-23 -30 -53 -32 -66 l-3 -25 -25 29 c-50 59 -77 86 -87 86 -5 0 -32 21 -59 48
-27 26 -65 58 -84 72 -18 14 -45 37 -59 51 -14 15 -36 32 -48 38 -13 6 -23 17
-23 23 0 6 -7 19 -15 28 -25 28 4 82 96 177 11 12 18 27 14 32 -3 6 -1 11 6
11 7 0 9 3 6 7 -4 3 0 14 8 23 34 38 37 200 5 284 -12 33 -13 76 -1 76 7 0 71
95 71 107 0 3 16 31 35 63 l35 57 167 -4 c93 -3 186 0 208 5 54 13 63 14 86 2z
m24 -90 c9 -16 21 -30 27 -30 15 0 3 -249 -17 -350 -8 -41 -15 -89 -15 -106 0
-68 -148 -459 -208 -550 -4 -6 -16 -24 -26 -40 -11 -16 -30 -46 -44 -67 -28
-42 -37 -39 -47 13 -5 29 -1 42 22 75 16 22 40 63 53 90 13 28 31 61 40 75 28
43 96 234 131 370 27 100 49 299 49 438 0 117 8 135 35 82z m-1962 -784 c102
-46 130 -57 145 -55 9 1 19 0 22 -1 6 -2 20 -5 165 -30 66 -12 151 -24 189
-27 66 -5 71 -7 105 -45 20 -22 44 -48 54 -57 10 -9 30 -27 45 -41 15 -14 45
-37 67 -50 45 -26 95 -70 95 -82 0 -4 18 -24 40 -44 21 -19 42 -44 45 -54 3
-10 14 -20 24 -23 10 -2 21 -15 24 -29 4 -13 27 -46 52 -73 25 -27 45 -55 45
-62 0 -6 9 -18 20 -26 10 -7 24 -25 29 -40 6 -15 15 -27 21 -27 5 0 10 -5 10
-11 0 -7 -10 -9 -27 -5 -14 4 -29 3 -32 -1 -9 -13 -89 -63 -101 -63 -5 0 -10
-4 -10 -10 0 -5 -16 -16 -36 -25 -19 -8 -43 -24 -52 -34 -9 -11 -30 -23 -45
-25 -16 -3 -34 -9 -40 -14 -7 -5 -25 -12 -40 -16 -16 -4 -39 -19 -53 -34 -13
-15 -24 -22 -24 -16 0 16 -70 85 -80 79 -5 -3 -15 3 -22 13 -7 10 -26 27 -43
37 -16 11 -37 25 -45 32 -38 33 -78 63 -84 63 -4 0 -30 23 -58 50 -28 28 -54
50 -58 50 -3 0 -15 9 -27 19 -11 10 -28 21 -37 22 -9 2 -17 8 -16 12 1 9 -61
67 -72 67 -4 0 -22 16 -41 35 -19 19 -37 35 -40 35 -4 0 -41 34 -83 75 -68 66
-78 80 -85 122 -10 59 -11 307 -2 316 10 10 21 9 56 -7z m-432 -126 c10 -6 19
-17 19 -25 0 -8 6 -18 14 -22 20 -12 82 -151 91 -203 4 -25 11 -52 15 -60 4
-8 10 -28 13 -45 3 -16 8 -37 11 -45 7 -16 116 -90 133 -90 5 0 20 -11 33 -25
13 -14 29 -25 37 -25 7 0 13 -3 13 -8 0 -4 15 -13 33 -21 17 -8 34 -17 37 -21
11 -16 108 -78 126 -82 10 -2 19 -10 19 -17 0 -8 16 -24 36 -35 20 -12 54 -36
77 -55 22 -18 43 -32 47 -31 4 1 19 -9 33 -23 15 -13 47 -37 72 -52 50 -30 70
-51 70 -74 0 -13 -14 -17 -68 -19 -123 -6 -132 -7 -132 -12 0 -7 -413 -9 -424
-3 -5 3 -25 7 -45 8 -62 3 -195 32 -199 43 -2 6 -12 20 -23 33 -10 12 -19 29
-19 38 0 9 -11 28 -24 43 -14 14 -22 28 -19 32 3 3 -8 27 -24 53 -43 71 -73
129 -73 143 0 7 -13 29 -29 49 -15 20 -32 47 -35 61 -10 34 -48 112 -63 128
-7 7 -16 25 -19 40 -3 15 -8 36 -12 47 -12 45 -7 67 21 91 16 13 32 24 37 24
4 0 22 14 40 30 18 17 38 30 45 30 6 0 16 9 21 19 14 31 68 90 82 91 7 0 22
-5 33 -10z m1658 -696 c17 -16 -257 -194 -300 -194 -6 0 -24 -9 -40 -21 -42
-30 -104 -37 -113 -13 -9 24 7 37 90 72 39 16 89 42 112 56 23 14 46 26 51 26
6 0 14 6 18 13 4 7 31 27 58 45 40 25 57 30 85 26 19 -3 37 -8 39 -10z"/>
<path d="M2111 4714 c-21 -18 -31 -35 -31 -54 0 -16 -11 -42 -26 -60 -30 -35
-26 -50 8 -26 12 9 29 16 38 16 8 0 -8 -12 -36 -28 -55 -29 -131 -86 -102 -76
9 3 25 1 37 -5 26 -14 51 -4 164 62 59 35 87 57 87 70 0 15 -6 17 -37 12 l-38
-6 24 20 c21 19 22 24 11 51 -12 29 -37 50 -59 50 -5 0 -23 -12 -40 -26z m74
-20 c15 -15 15 -18 -2 -36 -16 -18 -64 -48 -78 -48 -3 0 -5 17 -5 38 0 30 5
41 23 50 31 15 43 14 62 -4z m25 -91 c-1 -10 -107 -79 -143 -92 -36 -14 -57
-14 -57 -1 0 6 8 10 19 10 10 0 25 7 32 16 14 17 115 71 137 73 6 1 12 -2 12
-6z"/>
<path d="M2431 4639 c-75 -71 -116 -98 -191 -126 -30 -12 -106 -46 -169 -77
-63 -31 -121 -56 -130 -56 -13 -1 -13 -3 3 -11 13 -8 28 -7 58 5 23 8 44 13
49 10 17 -10 139 30 248 83 92 45 126 68 178 120 47 46 63 70 61 86 -6 41 -39
30 -107 -34z m89 30 c0 -12 -130 -143 -145 -146 -28 -5 -145 -64 -145 -73 0
-6 -4 -8 -10 -5 -5 3 -10 1 -10 -5 0 -6 -4 -9 -8 -6 -5 3 -26 -1 -48 -8 -21
-7 -52 -16 -68 -20 -26 -6 -28 -5 -16 9 7 8 15 13 17 11 3 -3 33 10 66 28 52
28 127 59 147 61 12 1 80 54 138 107 61 57 82 69 82 47z"/>
<path d="M2275 4390 c-20 -21 -29 -42 -33 -78 -4 -44 -2 -51 24 -71 16 -13 39
-21 53 -19 25 3 26 6 29 75 2 54 -1 79 -14 98 -21 32 -24 31 -59 -5z m51 -11
c8 -13 9 -128 0 -136 -3 -3 -19 0 -36 7 -27 11 -30 17 -30 54 0 61 43 111 66
75z"/>
<path d="M1755 4381 c-76 -33 -85 -39 -85 -57 0 -19 36 -18 44 2 3 8 10 13 15
10 5 -4 11 -3 13 1 1 5 24 19 51 33 45 24 61 41 35 39 -7 -1 -40 -13 -73 -28z"/>
<path d="M2180 4380 c0 -5 5 -10 10 -10 6 0 10 5 10 10 0 6 -4 10 -10 10 -5 0
-10 -4 -10 -10z"/>
<path d="M2100 4362 c0 -5 -18 -17 -40 -27 -52 -24 -57 -30 -131 -173 -60
-115 -103 -179 -166 -244 -14 -16 -24 -30 -22 -32 2 -2 26 3 54 12 33 11 64
32 94 62 42 43 48 40 26 -12 -14 -35 11 -17 40 29 67 105 87 153 125 300 6 23
17 49 25 57 17 17 20 36 5 36 -5 0 -10 -4 -10 -8z m-36 -61 c7 -10 -50 -188
-70 -218 -8 -12 -14 -29 -14 -36 0 -8 -7 -20 -15 -27 -13 -11 -15 -8 -15 16
l-1 29 -17 -22 c-9 -12 -28 -38 -42 -57 -23 -32 -90 -75 -90 -58 0 5 16 23 35
42 19 18 53 71 75 116 22 45 45 84 50 86 5 2 18 27 29 57 22 64 59 99 75 72z"/>
<path d="M1900 4290 c-37 -40 -54 -91 -45 -138 4 -20 9 -32 10 -27 20 73 41
124 61 151 34 43 13 55 -26 14z"/>
<path d="M2124 4024 c-9 -21 -22 -52 -29 -69 -7 -16 -15 -38 -19 -47 -6 -20 9
-111 29 -173 7 -22 25 -80 41 -130 15 -49 34 -97 41 -106 12 -15 70 -34 190
-62 l62 -15 31 34 c31 34 32 54 4 54 -21 0 -164 68 -203 98 -42 31 -81 114
-88 189 -7 70 7 63 32 -17 10 -30 24 -67 31 -82 14 -27 71 -68 95 -68 13 0 71
109 85 158 7 28 -13 82 -31 82 -8 0 -15 4 -17 8 -1 4 -37 30 -78 56 -41 27
-94 67 -117 89 l-42 41 -17 -40z m61 -33 c8 -13 123 -101 133 -101 4 0 24 -16
46 -36 36 -33 38 -38 32 -76 -7 -43 -34 -87 -53 -88 -7 0 -10 -7 -7 -15 4 -8
1 -15 -4 -15 -25 0 -65 53 -88 117 -30 82 -47 102 -72 87 -40 -26 -1 -185 64
-263 18 -21 86 -58 176 -94 28 -12 35 -20 32 -34 -6 -22 -28 -22 -114 0 -103
27 -125 41 -149 98 -12 28 -20 53 -18 56 7 6 -13 77 -24 83 -13 9 -39 120 -39
171 0 29 6 51 15 59 8 7 15 20 15 30 0 9 3 20 7 23 10 10 41 8 48 -2z"/>
<path d="M1672 3984 c-53 -26 -146 -119 -155 -155 -8 -32 8 -22 77 45 36 36
88 77 116 93 84 47 52 62 -38 17z"/>
<path d="M1982 3873 c-25 -71 -70 -147 -121 -202 -52 -57 -41 -68 20 -20 72
57 155 204 147 259 -6 44 -23 30 -46 -37z"/>
<path d="M3360 3770 c0 -8 69 -30 93 -30 8 0 41 -10 74 -22 l58 -23 -85 -11
c-47 -7 -114 -13 -150 -13 -60 -1 -102 -13 -89 -25 3 -3 49 -6 102 -7 53 -1
97 -4 97 -8 0 -9 -76 -74 -128 -110 -19 -13 -46 -35 -60 -48 -14 -13 -71 -46
-125 -72 l-99 -48 69 -6 c112 -11 119 -10 160 29 59 56 165 140 199 157 44 22
142 37 250 37 108 0 119 7 112 75 -7 55 -28 89 -71 112 -27 15 -62 18 -219 19
-104 0 -188 -2 -188 -6z m408 -43 c37 -20 54 -56 50 -101 l-3 -31 -125 -6
c-159 -8 -237 -29 -293 -80 -157 -143 -155 -141 -197 -143 -59 -3 -67 9 -18
29 24 9 65 36 93 59 27 23 65 51 84 62 70 39 124 92 117 117 -5 22 27 37 80
37 41 0 57 26 29 46 -10 7 -22 11 -27 8 -4 -3 -15 2 -23 10 -14 13 -11 15 27
18 73 5 171 -7 206 -25z"/>
<path d="M3972 3677 c-36 -21 -92 -122 -92 -167 0 -21 5 -42 10 -45 6 -3 10
-17 10 -31 0 -35 14 -30 72 29 74 73 99 87 158 87 55 0 55 0 39 66 -13 52 -24
58 -114 67 -41 5 -67 2 -83 -6z m161 -39 c12 -6 17 -18 15 -36 -2 -22 -9 -27
-33 -29 -52 -4 -73 -12 -107 -44 -18 -17 -45 -39 -60 -50 -26 -19 -27 -19 -37
-1 -9 18 -7 46 6 82 4 8 5 18 5 23 -1 4 3 7 8 7 6 0 10 5 10 10 0 16 33 47 55
52 27 7 116 -3 138 -14z"/>
<path d="M2090 3531 c0 -6 4 -13 10 -16 6 -3 7 1 4 9 -7 18 -14 21 -14 7z"/>
<path d="M3520 3499 c0 -5 5 -7 10 -4 6 3 10 8 10 11 0 2 -4 4 -10 4 -5 0 -10
-5 -10 -11z"/>
<path d="M3633 3470 c-132 -35 -226 -84 -322 -168 -40 -36 -48 -62 -20 -62 6
0 43 -16 84 -35 40 -19 98 -44 128 -54 l56 -20 53 62 c29 34 78 88 108 120 68
72 79 92 80 140 l0 37 -47 -1 c-27 0 -80 -9 -120 -19z m135 -23 c4 -21 -20
-64 -60 -108 -18 -20 -60 -66 -93 -103 -51 -58 -63 -67 -85 -61 -14 3 -35 7
-48 10 -12 2 -41 13 -63 24 -22 12 -46 21 -53 21 -7 0 -21 9 -32 21 -19 21
-18 21 11 45 17 13 43 35 58 49 16 14 33 23 38 19 6 -3 16 1 22 10 15 21 202
87 222 80 8 -4 15 -2 15 2 0 17 65 8 68 -9z"/>
<path d="M4075 3481 c-25 -11 -75 -61 -97 -99 -17 -29 -17 -30 16 -95 32 -62
33 -68 21 -104 -14 -42 -11 -53 59 -207 71 -154 132 -212 199 -185 35 14 49
28 73 72 14 26 14 32 -1 63 -9 19 -24 42 -35 52 -12 11 -22 42 -29 92 -12 89
-62 289 -85 343 -9 21 -31 46 -49 57 -35 22 -42 23 -72 11z m82 -53 c15 -15
27 -41 30 -64 2 -22 18 -78 34 -126 17 -48 34 -123 38 -166 8 -73 33 -142 53
-142 4 0 8 -18 8 -41 0 -36 -3 -42 -30 -52 -16 -6 -30 -17 -30 -24 0 -24 -26
-13 -61 25 -60 63 -89 103 -83 113 3 5 1 9 -4 9 -5 0 -9 6 -9 13 0 6 -17 47
-37 89 -34 71 -37 81 -26 113 9 29 8 45 -5 88 -10 28 -24 59 -31 68 -16 18
-18 39 -4 39 6 0 10 6 10 14 0 8 14 28 31 45 36 37 78 36 116 -1z"/>
<path d="M2520 3458 c-22 -24 -27 -48 -9 -48 6 0 30 -13 53 -29 24 -15 63 -36
87 -45 25 -10 59 -30 75 -46 31 -29 51 -33 137 -31 39 1 47 4 47 20 0 29 -47
63 -146 106 -49 21 -117 51 -150 67 -34 15 -64 28 -68 28 -3 0 -14 -10 -26
-22z m132 -49 c45 -23 91 -43 103 -45 36 -6 116 -55 112 -68 -2 -6 -22 -12
-44 -14 -33 -2 -51 4 -89 30 -27 18 -55 39 -62 46 -7 6 -20 12 -28 12 -20 0
-114 48 -114 59 0 12 12 21 27 21 7 0 50 -18 95 -41z"/>
<path d="M2945 3470 c3 -5 8 -10 11 -10 2 0 4 5 4 10 0 6 -5 10 -11 10 -5 0
-7 -4 -4 -10z"/>
<path d="M2041 3402 c-30 -56 5 -82 104 -76 39 2 96 5 127 6 52 3 58 5 58 24
0 19 -10 24 -72 38 -40 8 -103 18 -140 22 -60 6 -67 4 -77 -14z m104 -12 c33
-5 76 -11 95 -13 19 -2 36 -9 37 -14 2 -6 -41 -11 -107 -12 -102 -2 -110 -1
-110 17 0 35 3 35 85 22z"/>
<path d="M2103 3279 c-28 -15 -32 -35 -21 -104 16 -102 55 -153 213 -276 39
-30 79 -62 90 -71 11 -10 36 -30 55 -45 37 -29 110 -106 110 -116 0 -3 18 -33
41 -67 23 -34 50 -82 60 -106 11 -24 24 -46 30 -50 6 -3 19 -25 30 -48 10 -22
28 -57 39 -76 21 -36 27 -76 10 -65 -28 17 -1 -46 38 -87 32 -34 35 -34 100
-2 39 19 52 31 52 48 0 24 -43 121 -58 130 -5 3 -20 32 -32 63 -53 137 -74
189 -82 198 -4 5 -8 18 -8 30 0 12 -4 25 -9 31 -5 5 -19 37 -31 72 -13 34 -27
62 -31 62 -5 0 -9 6 -9 13 0 7 -17 27 -37 43 -20 16 -41 34 -47 40 -6 5 -38
32 -71 59 -33 26 -69 56 -80 66 -11 10 -32 30 -47 43 -15 14 -46 62 -68 108
-23 46 -46 88 -53 95 -17 17 -157 26 -184 12z m164 -32 c16 -16 73 -129 73
-144 0 -7 9 -17 20 -23 11 -6 22 -21 26 -34 3 -14 18 -29 33 -36 15 -6 42 -27
60 -45 18 -19 37 -35 43 -35 6 0 30 -17 53 -37 23 -21 55 -49 72 -63 20 -17
37 -47 52 -92 12 -37 29 -72 37 -78 8 -7 14 -20 14 -29 0 -26 31 -114 47 -132
7 -9 19 -38 26 -65 7 -27 29 -74 49 -104 51 -78 56 -103 24 -134 -30 -30 -52
-32 -85 -7 -19 15 -23 27 -23 72 -1 50 -11 87 -28 99 -4 3 -17 24 -29 47 -11
23 -25 44 -31 48 -5 3 -10 13 -10 21 0 27 -193 314 -211 314 -7 0 -129 93
-197 150 -13 11 -28 20 -33 20 -5 0 -8 3 -7 8 1 4 -26 35 -60 70 -66 68 -86
111 -80 177 2 32 8 41 28 47 33 9 122 0 137 -15z"/>
<path d="M3170 3271 c0 -6 4 -13 10 -16 6 -3 7 1 4 9 -7 18 -14 21 -14 7z"/>
<path d="M3753 3241 c-24 -21 -43 -41 -43 -45 0 -5 -9 -21 -20 -36 -12 -16
-16 -31 -11 -34 15 -9 214 -12 228 -3 23 14 -69 157 -101 157 -6 0 -30 -18
-53 -39z m79 -11 c9 -10 24 -32 32 -49 13 -25 13 -31 2 -41 -16 -12 -133 -4
-142 11 -7 11 24 69 37 69 6 0 17 7 25 15 20 20 26 19 46 -5z"/>
<path d="M2340 3251 c0 -6 4 -13 10 -16 6 -3 7 1 4 9 -7 18 -14 21 -14 7z"/>
<path d="M3960 3250 c0 -5 5 -10 11 -10 5 0 7 5 4 10 -3 6 -8 10 -11 10 -2 0
-4 -4 -4 -10z"/>
<path d="M2725 3230 c-3 -5 -1 -10 4 -10 6 0 11 5 11 10 0 6 -2 10 -4 10 -3 0
-8 -4 -11 -10z"/>
<path d="M3175 3214 l-27 -25 26 -27 c14 -15 49 -40 78 -55 29 -16 73 -39 97
-53 25 -13 71 -34 104 -46 l60 -22 23 28 c13 15 24 33 24 40 0 27 -36 54 -100
76 -36 12 -101 39 -145 60 -111 52 -110 52 -140 24z m77 -15 c17 -9 18 -13 7
-21 -10 -7 -9 -8 7 -4 28 8 138 -38 143 -60 2 -12 5 -13 11 -5 5 10 16 9 46
-4 21 -9 40 -16 42 -16 24 6 38 -29 23 -58 -6 -11 -19 -18 -28 -16 -10 2 -18
4 -18 5 0 1 -10 3 -22 6 -38 7 -239 114 -264 140 -20 21 -21 27 -9 34 20 13
37 12 62 -1z"/>
<path d="M3224 3185 c-6 -14 30 -54 50 -55 5 0 -3 9 -17 20 -15 12 -24 27 -20
35 3 8 2 15 -1 15 -4 0 -9 -7 -12 -15z"/>
<path d="M3290 3160 c0 -5 5 -10 11 -10 5 0 7 5 4 10 -3 6 -8 10 -11 10 -2 0
-4 -4 -4 -10z"/>
<path d="M3311 3111 c13 -11 26 -18 28 -15 7 7 -21 34 -36 34 -10 0 -8 -6 8
-19z"/>
<path d="M3377 3119 c7 -7 15 -10 18 -7 3 3 -2 9 -12 12 -14 6 -15 5 -6 -5z"/>
<path d="M3460 3091 c0 -5 5 -13 10 -16 6 -3 10 -2 10 4 0 5 -4 13 -10 16 -5
3 -10 2 -10 -4z"/>
<path d="M3400 3070 c8 -5 20 -10 25 -10 6 0 3 5 -5 10 -8 5 -19 10 -25 10 -5
0 -3 -5 5 -10z"/>
<path d="M3495 3050 c-3 -5 -2 -10 4 -10 5 0 13 5 16 10 3 6 2 10 -4 10 -5 0
-13 -4 -16 -10z"/>
<path d="M2704 3165 c-12 -19 -17 -50 -17 -119 -1 -81 2 -100 24 -141 13 -27
29 -50 35 -52 23 -8 37 74 31 174 -9 146 -35 196 -73 138z m56 -142 c3 -73 1
-111 -7 -122 -13 -18 -14 -17 -35 25 -19 38 -24 184 -8 215 11 20 13 20 28 5
13 -12 18 -43 22 -123z"/>
<path d="M3962 3170 c0 -14 2 -19 5 -12 2 6 2 18 0 25 -3 6 -5 1 -5 -13z"/>
<path d="M1906 3108 c-60 -85 37 -177 262 -249 37 -12 84 -28 105 -35 20 -8
37 -11 37 -8 0 13 -71 88 -100 105 -17 11 -57 30 -90 43 -87 35 -145 80 -167
126 -21 46 -26 48 -47 18z m46 -55 c7 -20 35 -42 93 -75 45 -26 91 -49 101
-51 29 -5 104 -46 104 -57 0 -22 -87 3 -180 50 -21 11 -41 16 -44 12 -4 -3
-10 -2 -14 3 -4 6 -24 23 -45 38 -39 30 -72 81 -62 97 12 19 37 10 47 -17z"/>
<path d="M2001 3094 c0 -11 3 -14 6 -6 3 7 2 16 -1 19 -3 4 -6 -2 -5 -13z"/>
<path d="M3005 3077 c-28 -18 -75 -48 -106 -65 -68 -38 -69 -43 -69 -221 0
-128 7 -173 41 -248 11 -24 28 -63 39 -88 11 -25 20 -48 20 -53 0 -4 15 -33
33 -63 18 -30 39 -70 47 -89 17 -42 33 -60 54 -60 25 0 36 32 25 76 -5 21 -6
67 -3 100 5 47 3 64 -8 70 -18 12 -68 80 -68 93 0 17 42 13 77 -8 52 -33 93
-102 102 -175 4 -36 4 -63 -1 -60 -4 3 -8 -8 -8 -25 0 -44 13 -45 49 -4 63 71
81 117 88 219 l6 94 -71 0 c-40 0 -72 4 -72 8 0 5 -11 15 -25 22 -39 21 -30
30 33 30 31 0 70 7 86 15 15 8 33 15 40 15 28 1 158 253 139 270 -4 4 -33 17
-63 28 -65 24 -234 107 -272 133 -37 26 -56 24 -113 -14z m124 -20 c15 -13 57
-36 94 -52 38 -15 74 -33 80 -40 21 -20 55 -35 81 -35 22 0 26 -5 26 -29 0
-17 -5 -33 -11 -36 -6 -4 -8 -13 -5 -21 10 -25 -10 -57 -75 -125 l-64 -67 -72
5 c-69 4 -73 4 -73 -17 0 -52 50 -90 117 -90 60 0 68 -10 65 -82 -4 -75 -46
-175 -67 -158 -7 5 -10 21 -8 34 7 36 -42 135 -88 178 -49 46 -101 59 -129 33
-28 -26 -25 -46 15 -85 19 -18 32 -37 29 -41 -2 -4 0 -11 6 -14 11 -7 10 -56
-2 -65 -6 -5 5 -81 17 -112 4 -10 3 -18 -3 -18 -6 0 -15 13 -20 29 -6 16 -27
52 -47 81 -22 32 -35 60 -32 71 3 10 1 22 -4 25 -16 10 -91 173 -84 184 3 6 2
10 -4 10 -12 0 -15 314 -2 338 5 10 36 31 68 46 32 16 71 39 86 52 36 30 74
30 106 1z"/>
<path d="M3230 3080 c0 -5 7 -10 15 -10 8 0 15 5 15 10 0 6 -7 10 -15 10 -8 0
-15 -4 -15 -10z"/>
<path d="M3908 3083 c7 -3 16 -2 19 1 4 3 -2 6 -13 5 -11 0 -14 -3 -6 -6z"/>
<path d="M3965 3079 c-11 -16 -1 -19 13 -3 7 8 8 14 3 14 -5 0 -13 -5 -16 -11z"/>
<path d="M2811 3064 c0 -11 3 -14 6 -6 3 7 2 16 -1 19 -3 4 -6 -2 -5 -13z"/>
<path d="M1715 3050 c-3 -6 1 -7 9 -4 18 7 21 14 7 14 -6 0 -13 -4 -16 -10z"/>
<path d="M3615 3048 c-3 -7 -6 -24 -7 -37 -4 -34 28 -41 192 -40 186 0 182 0
166 19 -8 8 -16 24 -18 35 -3 17 -14 21 -73 26 -130 12 -255 10 -260 -3z m233
-24 c56 -4 72 -9 72 -21 0 -14 -17 -15 -130 -11 -127 5 -174 17 -142 37 12 7
50 6 200 -5z"/>
<path d="M1441 3039 c-131 -16 -216 -71 -276 -180 -29 -52 -30 -58 -30 -184 0
-138 3 -153 63 -274 25 -51 172 -211 194 -211 5 0 33 -15 63 -34 29 -19 75
-44 102 -56 26 -12 64 -30 84 -41 20 -10 49 -25 63 -33 34 -17 76 -66 76 -88
0 -10 7 -18 16 -18 8 0 13 -4 10 -9 -3 -5 1 -22 9 -37 8 -16 15 -41 15 -55 0
-14 3 -29 7 -33 7 -6 11 -24 15 -58 1 -10 9 -18 16 -18 10 0 13 9 9 33 -7 46
-26 119 -36 142 -24 53 -45 114 -52 150 -4 22 -10 50 -14 63 -4 12 -3 22 1 22
9 0 68 -151 97 -245 8 -27 25 -83 37 -122 19 -65 39 -95 41 -60 2 53 -3 282
-7 322 -10 98 -60 180 -186 309 -43 43 -78 84 -78 91 0 7 -6 15 -13 18 -16 6
-65 98 -77 146 -5 20 -12 46 -15 59 -5 16 -3 22 7 22 8 0 28 -28 44 -62 39
-83 124 -202 188 -262 75 -72 155 -128 181 -128 16 0 22 -5 18 -14 -3 -8 0
-14 7 -14 12 0 10 31 -8 133 -5 27 -5 50 0 53 9 6 60 -101 72 -151 4 -16 14
-37 21 -45 7 -8 15 -26 17 -39 2 -18 13 -28 42 -37 44 -16 174 -26 181 -14 2
4 0 22 -5 41 -6 18 -13 88 -16 154 -4 66 -10 127 -15 135 -6 11 -25 15 -70 15
-60 0 -62 1 -71 30 -5 17 -12 37 -15 45 -4 8 -5 18 -5 23 1 4 -86 7 -193 7
l-195 0 -15 24 c-9 14 -20 51 -25 83 -5 32 -14 85 -19 118 -6 33 -11 98 -11
145 0 47 -4 90 -8 96 -9 13 -88 42 -132 47 -19 3 -68 1 -109 -4z m139 -31 c0
-5 4 -7 9 -4 5 3 22 -1 38 -9 35 -17 43 -47 43 -158 0 -37 6 -98 14 -135 15
-68 29 -140 30 -155 1 -5 12 -17 26 -27 23 -18 43 -20 207 -20 l181 0 17 -50
c19 -56 38 -66 106 -57 35 5 39 3 39 -16 0 -12 5 -76 10 -141 6 -67 6 -124 2
-128 -5 -5 -38 -4 -75 2 -54 10 -67 16 -73 33 -3 12 -14 29 -24 37 -10 8 -27
48 -39 88 -13 43 -33 86 -50 105 l-29 32 -21 -25 c-21 -26 -26 -40 -13 -40 4
0 8 -25 9 -55 2 -59 -1 -64 -26 -40 -9 9 -44 38 -79 65 -35 28 -74 62 -86 77
-33 40 -126 172 -126 179 0 3 -9 19 -21 35 -11 16 -18 29 -14 29 10 0 -26 48
-40 54 -8 3 -27 -5 -42 -18 -25 -22 -26 -24 -10 -40 9 -10 17 -27 17 -39 0
-12 9 -38 19 -57 11 -19 27 -51 35 -69 9 -19 23 -42 31 -50 61 -64 115 -126
115 -133 0 -4 13 -14 30 -23 16 -8 29 -19 27 -23 -1 -4 4 -14 11 -22 26 -31
65 -96 66 -110 1 -8 7 -25 13 -36 15 -26 29 -289 16 -281 -5 3 -15 42 -23 87
-7 44 -19 85 -26 91 -7 6 -20 33 -29 60 -9 27 -21 49 -27 49 -5 0 -9 10 -8 23
3 36 1 47 -11 47 -6 0 -17 7 -25 15 -9 8 -20 15 -25 15 -10 0 0 -91 12 -105 5
-5 9 -20 9 -32 l0 -24 -27 26 c-15 14 -49 32 -75 41 -27 8 -48 19 -48 24 0 8
-41 27 -70 32 -17 3 -97 54 -119 75 -7 8 -22 11 -32 8 -12 -4 -19 -2 -19 6 0
7 -31 43 -70 80 -38 36 -70 74 -70 83 0 9 -4 16 -10 16 -11 0 -27 28 -34 61
-3 13 -13 51 -22 84 -12 45 -15 85 -11 161 5 110 20 151 79 216 36 40 140 93
163 84 8 -3 15 -2 15 2 0 4 36 7 80 8 44 0 80 -3 80 -8z"/>
<path d="M3315 3040 c3 -5 8 -10 11 -10 2 0 4 5 4 10 0 6 -5 10 -11 10 -5 0
-7 -4 -4 -10z"/>
<path d="M1752 2972 c-7 -5 -10 -15 -8 -23 3 -8 10 -77 16 -154 7 -89 16 -148
25 -162 21 -31 74 -43 193 -43 128 0 175 16 170 57 -3 24 -8 28 -38 31 -53 4
-193 33 -213 44 -28 15 -52 94 -58 198 -2 25 -8 48 -14 52 -14 10 -57 10 -73
0z m60 -58 c-5 -50 34 -176 63 -201 26 -23 90 -45 137 -47 16 0 28 -4 28 -8 0
-4 7 -5 15 -2 19 8 65 -3 65 -16 0 -17 -46 -24 -160 -21 -74 2 -122 7 -135 16
-17 10 -23 31 -33 101 -27 205 -27 218 6 212 12 -2 16 -12 14 -34z"/>
<path d="M1903 2928 c22 -59 51 -97 87 -115 19 -10 38 -22 41 -26 10 -13 132
-5 147 10 15 14 2 19 -13 4 -6 -5 -32 6 -65 30 -30 21 -64 43 -75 48 -11 5
-42 26 -69 45 -27 20 -53 36 -57 36 -4 0 -2 -15 4 -32z m69 -34 c12 -14 30
-30 42 -35 11 -5 36 -21 55 -34 43 -31 19 -33 -49 -4 -37 16 -54 31 -69 60
-23 44 -10 53 21 13z"/>
<path d="M850 2921 c-55 -17 -120 -54 -134 -75 -8 -13 -23 -31 -32 -41 -18
-17 -17 -18 11 -12 17 3 62 17 100 31 47 18 92 27 135 27 36 1 71 6 77 11 7 6
24 7 38 4 47 -12 27 20 -26 43 -52 21 -122 26 -169 12z m141 -22 c30 -15 13
-29 -34 -28 -46 2 -151 -18 -181 -33 -12 -7 -22 -6 -29 1 -7 7 8 19 54 40 68
31 153 40 190 20z"/>
<path d="M1100 2889 c0 -5 5 -7 10 -4 6 3 10 8 10 11 0 2 -4 4 -10 4 -5 0 -10
-5 -10 -11z"/>
<path d="M910 2830 c-52 -10 -103 -34 -179 -85 -86 -57 -122 -95 -163 -170
l-33 -60 1 -250 c1 -285 7 -465 14 -465 6 0 33 58 36 77 1 6 6 19 12 28 15 28
21 -38 6 -80 -6 -19 -8 -32 -3 -29 5 3 9 0 9 -5 0 -6 -8 -11 -17 -11 -12 0
-14 -3 -6 -11 13 -13 33 -4 33 15 0 16 28 75 45 96 22 26 27 88 26 314 -1 258
12 352 58 420 36 52 163 167 199 181 15 6 38 18 52 28 l25 18 -40 -3 c-22 -1
-56 -5 -75 -8z m-67 -82 c-170 -155 -183 -198 -179 -576 2 -242 -1 -283 -21
-289 -9 -3 -11 17 -6 80 3 52 2 91 -5 103 -10 17 -11 17 -15 -6 -22 -110 -29
-137 -37 -150 -5 -8 -11 -12 -14 -9 -6 6 -9 563 -4 612 2 15 8 27 13 27 6 0
21 23 34 51 13 29 31 54 42 56 10 3 16 9 14 14 -3 4 12 20 34 33 22 14 42 30
45 35 4 5 20 12 36 16 17 4 30 11 30 16 0 11 56 38 78 39 7 0 -13 -24 -45 -52z"/>
<path d="M2748 2788 c2 -11 8 -16 11 -11 3 4 10 11 14 14 4 4 -1 9 -11 11 -15
4 -18 1 -14 -14z"/>
<path d="M1935 2770 c3 -5 8 -10 11 -10 2 0 4 5 4 10 0 6 -5 10 -11 10 -5 0
-7 -4 -4 -10z"/>
<path d="M2280 2745 c-10 -12 -14 -40 -14 -89 1 -89 12 -136 31 -136 8 0 12 4
9 9 -4 5 -2 11 4 13 18 6 24 124 8 160 -9 18 -17 39 -20 47 -3 10 -7 9 -18 -4z
m24 -61 c8 -21 8 -78 0 -99 -11 -29 -24 4 -24 63 0 50 12 68 24 36z"/>
<path d="M2390 2736 c0 -2 7 -7 16 -10 8 -3 12 -2 9 4 -6 10 -25 14 -25 6z"/>
<path d="M860 2624 c-6 -14 -10 -27 -10 -30 0 -2 -11 -22 -25 -44 -14 -22 -25
-53 -25 -69 0 -16 -5 -33 -10 -36 -6 -4 -9 -9 -6 -13 2 -4 7 -47 10 -96 4 -49
12 -96 19 -104 8 -10 13 -61 14 -150 3 -126 6 -152 18 -141 12 12 27 207 34
429 4 135 11 253 15 263 6 12 4 17 -8 17 -9 0 -21 -12 -26 -26z m-5 -253 c0
-93 -3 -172 -6 -175 -11 -11 -34 139 -33 217 1 69 16 127 33 127 3 0 6 -76 6
-169z"/>
<path d="M2361 2544 c0 -11 3 -14 6 -6 3 7 2 16 -1 19 -3 4 -6 -2 -5 -13z"/>
<path d="M2210 2520 c0 -5 5 -10 11 -10 5 0 7 5 4 10 -3 6 -8 10 -11 10 -2 0
-4 -4 -4 -10z"/>
<path d="M2432 2420 c-41 -9 -44 -13 -44 -42 1 -63 23 -251 32 -268 12 -23 41
-40 68 -40 29 0 32 38 17 190 -12 131 -20 171 -34 169 -3 -1 -21 -5 -39 -9z
m34 -31 c3 -6 8 -25 10 -43 17 -146 22 -219 17 -231 -13 -36 -68 2 -60 42 2
12 0 23 -5 23 -5 0 -7 4 -4 9 3 4 2 48 -3 97 -7 75 -6 91 7 102 19 15 29 15
38 1z"/>
<path d="M2560 2389 c-16 -57 15 -191 53 -233 19 -22 23 -46 6 -46 -5 0 -7 -5
-4 -10 5 -8 11 -7 21 1 11 9 16 6 25 -14 14 -32 48 -48 70 -34 15 9 15 15 3
58 -8 26 -25 71 -38 100 -13 30 -21 60 -19 67 3 7 0 11 -7 10 -6 -2 -17 13
-24 33 -7 21 -23 49 -34 64 -12 15 -19 31 -16 36 3 5 -2 9 -10 9 -9 0 -20 -16
-26 -41z m81 -104 c17 -36 32 -74 34 -84 2 -10 13 -35 24 -57 21 -38 27 -74
14 -74 -19 0 -102 108 -108 142 -3 11 -12 46 -20 76 -9 30 -14 66 -10 80 6 25
6 25 20 4 8 -11 29 -50 46 -87z"/>
<path d="M2896 2130 c-37 -24 -46 -35 -41 -48 4 -9 10 -26 13 -37 3 -11 18
-38 33 -61 l28 -41 78 17 c96 20 128 35 142 67 25 54 1 79 -79 82 -44 1 -59 7
-77 26 -28 32 -39 31 -97 -5z m64 -8 c0 -13 64 -40 100 -41 43 -2 70 -10 70
-20 0 -26 -43 -58 -92 -69 -98 -22 -101 -21 -132 32 -31 54 -32 60 -6 86 19
19 60 28 60 12z"/>
<path d="M2788 2023 c6 -2 9 -10 6 -15 -4 -7 -2 -8 5 -4 13 9 5 26 -12 25 -9
0 -8 -2 1 -6z"/>
<path d="M1490 1984 c-70 -37 -160 -140 -144 -165 3 -5 -2 -6 -11 -2 -18 6
-35 -12 -34 -37 0 -10 3 -8 9 5 9 20 9 20 9 0 1 -13 4 -16 9 -8 4 7 26 19 47
28 40 16 130 104 141 137 3 10 10 18 15 18 6 0 7 5 4 10 -3 6 -1 10 4 10 6 0
11 4 11 8 0 12 -33 10 -60 -4z m10 -32 c0 -4 -8 -15 -17 -23 -10 -9 -35 -35
-56 -58 -21 -22 -43 -41 -48 -41 -21 0 -6 25 47 76 53 51 74 64 74 46z"/>
<path d="M826 1903 c-6 -14 -5 -15 5 -6 7 7 10 15 7 18 -3 3 -9 -2 -12 -12z"/>
<path d="M3343 1887 c4 -10 7 -21 7 -23 0 -2 5 -4 12 -4 6 0 30 -20 54 -45 23
-25 46 -45 50 -45 4 0 18 -10 31 -22 17 -16 23 -18 23 -7 0 16 -65 79 -81 79
-5 0 -12 7 -15 15 -4 8 -11 15 -17 15 -6 0 -24 12 -40 28 -22 20 -28 22 -24 9z"/>
<path d="M3159 1876 c-2 -2 -20 -7 -40 -10 -20 -3 -49 -10 -65 -16 -15 -6 -38
-9 -50 -6 -25 7 -41 -8 -23 -20 8 -4 7 -9 -2 -15 -11 -7 -9 -9 5 -9 21 0 32
-9 113 -90 52 -53 86 -96 128 -166 11 -19 30 -41 42 -49 25 -18 28 -27 -34
105 -41 87 -41 89 -49 172 -4 40 -11 76 -17 79 -5 4 -6 12 -3 18 7 11 4 15 -5
7z m-21 -48 c14 -18 33 -114 26 -133 -5 -13 -10 -11 -30 10 -13 14 -24 31 -24
38 0 11 -36 40 -50 42 -11 1 -30 17 -30 25 0 9 51 27 81 29 9 1 21 -5 27 -11z"/>
<path d="M1235 1811 c-3 -5 -2 -12 3 -15 5 -3 9 1 9 9 0 17 -3 19 -12 6z"/>
<path d="M3237 1758 c3 -18 11 -44 18 -58 7 -14 23 -50 35 -80 61 -155 163
-330 192 -330 5 0 20 24 33 53 22 50 23 55 11 166 l-11 115 -53 41 c-53 42
-166 106 -209 119 -21 7 -22 5 -16 -26z m128 -61 c39 -23 72 -44 75 -47 3 -4
12 -9 21 -12 17 -7 29 -49 29 -104 0 -18 5 -36 10 -39 15 -9 12 -90 -6 -134
l-15 -39 -23 22 c-12 11 -30 44 -41 71 -10 28 -26 61 -35 75 -24 36 -70 140
-62 140 4 0 -1 5 -11 11 -13 8 -15 14 -8 23 8 9 4 19 -14 36 -29 28 -34 55 -7
46 9 -4 49 -26 87 -49z"/>
<path d="M2921 1754 c0 -11 3 -14 6 -6 3 7 2 16 -1 19 -3 4 -6 -2 -5 -13z"/>
<path d="M1843 1665 c0 -8 4 -15 9 -15 4 0 8 4 8 9 0 6 -4 12 -8 15 -5 3 -9
-1 -9 -9z"/>
<path d="M511 1654 c0 -11 3 -14 6 -6 3 7 2 16 -1 19 -3 4 -6 -2 -5 -13z"/>
<path d="M1331 1544 c0 -11 3 -14 6 -6 3 7 2 16 -1 19 -3 4 -6 -2 -5 -13z"/>
<path d="M3156 1533 c5 -5 12 -12 16 -18 4 -6 8 -2 8 8 0 9 -7 17 -17 17 -9 0
-12 -3 -7 -7z"/>
<path d="M1350 1496 c0 -18 24 -76 32 -76 15 0 8 38 -12 61 -10 13 -19 20 -20
15z"/>
<path d="M2130 1470 c0 -5 5 -10 11 -10 5 0 7 5 4 10 -3 6 -8 10 -11 10 -2 0
-4 -4 -4 -10z"/>
<path d="M2178 1441 c12 -12 22 -27 22 -34 0 -7 11 -21 25 -31 14 -11 37 -30
51 -43 14 -12 29 -23 33 -23 4 0 18 -9 31 -20 21 -18 40 -26 40 -17 0 9 -38
47 -47 47 -6 0 -16 7 -23 15 -7 8 -17 12 -23 8 -5 -3 -7 -2 -4 4 8 13 -31 45
-45 37 -7 -4 -8 -3 -4 5 8 12 -20 41 -59 62 -17 10 -17 8 3 -10z"/>
<path d="M1397 1390 c3 -10 11 -24 19 -31 12 -9 12 -6 3 20 -12 34 -30 43 -22
11z"/>
<path d="M3642 1384 c-26 -18 -27 -35 -6 -96 16 -47 43 -65 78 -52 34 13 9
131 -32 153 -14 7 -24 6 -40 -5z m49 -36 c20 -22 25 -73 10 -97 -13 -20 -41
27 -48 79 -6 46 8 53 38 18z"/>
<path d="M1434 1311 c9 -16 12 -31 9 -35 -4 -3 -1 -6 5 -6 13 0 15 14 6 48 -4
12 -13 22 -20 22 -12 0 -12 -4 0 -29z"/>
<path d="M2390 1269 c0 -9 17 -29 38 -45 56 -45 68 -51 46 -22 -10 14 -22 24
-25 22 -4 -2 -18 11 -33 28 -16 20 -26 26 -26 17z"/>
<path d="M2260 1250 c0 -5 5 -10 11 -10 5 0 7 5 4 10 -3 6 -8 10 -11 10 -2 0
-4 -4 -4 -10z"/>
<path d="M3450 1256 c0 -4 7 -14 15 -22 8 -9 15 -11 15 -6 0 5 -7 15 -15 22
-8 7 -15 9 -15 6z"/>
<path d="M3497 1205 c3 -11 14 -28 25 -38 10 -10 18 -21 18 -25 0 -13 90 -105
97 -99 8 9 -15 40 -87 117 -33 36 -57 56 -53 45z"/>
<path d="M2540 1130 c0 -5 5 -10 10 -10 6 0 10 5 10 10 0 6 -4 10 -10 10 -5 0
-10 -4 -10 -10z"/>
<path d="M1470 1100 c0 -5 5 -10 11 -10 5 0 7 5 4 10 -3 6 -8 10 -11 10 -2 0
-4 -4 -4 -10z"/>
<path d="M1529 1034 c-10 -13 -8 -24 17 -70 29 -54 50 -66 83 -45 12 8 13 16
2 53 -7 24 -20 51 -29 61 -19 21 -55 22 -73 1z m71 -29 c21 -56 23 -75 6 -75
-18 0 -70 76 -61 90 12 20 45 10 55 -15z"/>
<path d="M2740 975 c0 -8 5 -15 11 -15 6 0 8 -9 3 -22 -6 -21 -6 -21 12 -4 17
17 17 19 1 31 -9 6 -14 15 -10 18 3 4 1 7 -5 7 -7 0 -12 -7 -12 -15z"/>
<path d="M2670 901 c0 -6 4 -13 10 -16 6 -3 7 1 4 9 -7 18 -14 21 -14 7z"/>
<path d="M3793 854 c-6 -17 14 -128 29 -161 21 -44 98 -36 98 11 0 31 -19 85
-42 118 -23 34 -76 54 -85 32z m79 -66 c27 -53 30 -74 12 -89 -20 -16 -47 -2
-49 27 -1 10 -5 36 -9 57 -6 32 -4 37 11 37 11 0 26 -14 35 -32z"/>
<path d="M2854 757 c-6 -15 4 -41 44 -112 21 -38 34 -51 55 -53 21 -3 29 2 38
22 23 51 -46 156 -103 156 -16 0 -31 -6 -34 -13z m61 -13 c36 -14 72 -139 38
-132 -20 4 -76 106 -69 124 6 16 8 16 31 8z"/>
<path d="M315 931 c-3 -5 -2 -12 3 -15 5 -3 9 1 9 9 0 17 -3 19 -12 6z"/>
</g>
</svg>
